# xmcd CD database file generated by Grip 3.0.0
# 
# Track frame offsets:
#       150
#       34110
#       61085
#       100222
#       136525
#       164729
#       212681
#       233028
# 
# Disc length: 3732 seconds
# 
# Revision: 1
# Processed by: cddbd v1.5.1PL2 Copyright (c) Steve Scherf et al.
# Submitted via: Grip 3.0.0
# 
DISCID=630e9208
DTITLE=Boogie House - Live! Cotton Club Jam CD1
DYEAR=2002
DGENRE=Blues
TTITLE0=What Am I Gonna Do
TTITLE1=Poor Man
TTITLE2=Have A Good Time
TTITLE3=Walking To My Baby
TTITLE4=Back Yard Boogie
TTITLE5=Little Red Rooster
TTITLE6=Pinetops Job
TTITLE7=I'm A King Bee
EXTD=
EXTT0=
EXTT1=
EXTT2=
EXTT3=
EXTT4=
EXTT5=
EXTT6=
EXTT7=
PLAYORDER=
